<?xml version="1.0" encoding="UTF-8" standalone="no"?>
<!DOCTYPE svg PUBLIC "-//W3C//DTD SVG 1.1//EN"
 "http://www.w3.org/Graphics/SVG/1.1/DTD/svg11.dtd">
<!-- Generated by graphviz version 2.40.1 (20161225.0304)
 -->
<!-- Title: G Pages: 1 -->
<svg width="317pt" height="284pt"
 viewBox="0.00 0.00 317.03 284.00" xmlns="http://www.w3.org/2000/svg" xmlns:xlink="http://www.w3.org/1999/xlink">
<g id="graph0" class="graph" transform="scale(1 1) rotate(0) translate(4 280)">
<title>G</title>
<polygon fill="#ffffff" stroke="transparent" points="-4,4 -4,-280 313.0269,-280 313.0269,4 -4,4"/>
<g id="clust1" class="cluster">
<title>cluster_Global</title>
<path fill="none" stroke="#c0c0c0" d="M20,-8C20,-8 289.0269,-8 289.0269,-8 295.0269,-8 301.0269,-14 301.0269,-20 301.0269,-20 301.0269,-256 301.0269,-256 301.0269,-262 295.0269,-268 289.0269,-268 289.0269,-268 20,-268 20,-268 14,-268 8,-262 8,-256 8,-256 8,-20 8,-20 8,-14 14,-8 20,-8"/>
<text text-anchor="middle" x="154.5134" y="-255.2" font-family="Times,serif" font-size="11.00" fill="#c0c0c0">Global</text>
</g>
<g id="clust2" class="cluster">
<title>cluster_\EmptyNamespace</title>
<path fill="none" stroke="#c0c0c0" d="M180.6118,-62C180.6118,-62 281.0269,-62 281.0269,-62 287.0269,-62 293.0269,-68 293.0269,-74 293.0269,-74 293.0269,-229 293.0269,-229 293.0269,-235 287.0269,-241 281.0269,-241 281.0269,-241 180.6118,-241 180.6118,-241 174.6118,-241 168.6118,-235 168.6118,-229 168.6118,-229 168.6118,-74 168.6118,-74 168.6118,-68 174.6118,-62 180.6118,-62"/>
<text text-anchor="middle" x="230.8193" y="-228.2" font-family="Times,serif" font-size="11.00" fill="#c0c0c0">EmptyNamespace</text>
</g>
<!-- \\EmptyNamespace\\EmptyClass -->
<g id="node1" class="node">
<title>\\EmptyNamespace\\EmptyClass</title>
<polygon fill="none" stroke="#000000" points="271.8301,-214 189.8086,-214 189.8086,-178 271.8301,-178 271.8301,-214"/>
<text text-anchor="middle" x="230.8193" y="-192.7" font-family="Courier,monospace" font-size="11.00" fill="#000000">EmptyClass</text>
</g>
<!-- \\EmptyNamespace\\EmptyInterface -->
<g id="node2" class="node">
<title>\\EmptyNamespace\\EmptyInterface</title>
<polygon fill="none" stroke="#000000" points="285.2352,-160 176.4035,-160 176.4035,-124 285.2352,-124 285.2352,-160"/>
<text text-anchor="middle" x="230.8193" y="-138.7" font-family="Courier,monospace" font-size="11.00" fill="#000000">EmptyInterface</text>
</g>
<!-- \\EmptyNamespace\\EmptyTrait -->
<g id="node3" class="node">
<title>\\EmptyNamespace\\EmptyTrait</title>
<polygon fill="none" stroke="#000000" points="271.8301,-106 189.8086,-106 189.8086,-70 271.8301,-70 271.8301,-106"/>
<text text-anchor="middle" x="230.8193" y="-84.7" font-family="Courier,monospace" font-size="11.00" fill="#000000">EmptyTrait</text>
</g>
<!-- \\ClassBlocks -->
<g id="node4" class="node">
<title>\\ClassBlocks</title>
<polygon fill="none" stroke="#000000" points="104.4186,-52 16.1932,-52 16.1932,-16 104.4186,-16 104.4186,-52"/>
<text text-anchor="middle" x="60.3059" y="-30.7" font-family="Courier,monospace" font-size="11.00" fill="#000000">ClassBlocks</text>
</g>
<!-- \\SubClass -->
<g id="node5" class="node">
<title>\\SubClass</title>
<polygon fill="none" stroke="#000000" points="265.1282,-52 196.5105,-52 196.5105,-16 265.1282,-16 265.1282,-52"/>
<text text-anchor="middle" x="230.8193" y="-30.7" font-family="Courier,monospace" font-size="11.00" fill="#000000">SubClass</text>
</g>
<!-- \\SubClass&#45;&gt;\\ClassBlocks -->
<g id="edge1" class="edge">
<title>\\SubClass&#45;&gt;\\ClassBlocks</title>
<path fill="none" stroke="#000000" d="M196.3134,-34C172.8426,-34 141.3036,-34 114.5061,-34"/>
<polygon fill="none" stroke="#000000" points="114.4946,-30.5001 104.4946,-34 114.4946,-37.5001 114.4946,-30.5001"/>
</g>
</g>
</svg>
